<svg xmlns="http://www.w3.org/2000/svg" width="70" height="16" viewBox="0 0 70 16" fill="none">    <path fill-rule="evenodd" clip-rule="evenodd" d="M1.35163 13.8314C13.835 10.7383 35.0779 5.47489 39.1535 0.791282C42.0455 -1.72204 42.4905 2.48172 40.4883 3.31125C40.0937 3.47475 39.54 3.69395 38.8493 3.95781C42.3323 6.35387 49.308 10.7288 52.0563 10.8785C47.3374 11.6261 37.8618 6.06647 36.5909 4.7985C28.4555 7.76037 11.3106 13.3774 0 14.1665C0.437611 14.0579 0.888597 13.9461 1.35163 13.8314Z" fill="#5B3600"/>    <path fill-rule="evenodd" clip-rule="evenodd" d="M40.8597 12.5426C48.0026 10.9225 53.0141 9.78592 56.0607 5.79454C58.9211 2.96062 59.3876 7.61779 57.4603 8.63499C60.8482 11.2751 65.849 14.8739 70 16.0001C64.9075 15.3808 58.1188 11.2198 55.8792 9.35652C51.3953 11.3125 43.8754 13.8598 31.5898 14.8369C35.0061 13.8702 38.0928 13.1701 40.8597 12.5426Z" fill="#A5524D"/></svg>